/* XPM */
static char *abe285df471f4863a8fd2cf0e3868d4bFoG43Iv4UhAm2eED[] = {
/* columns rows colors chars-per-pixel */
"48 48 256 2 ",
"   c #FECB28",
".  c #FFCB28",
"X  c #FECB29",
"o  c #FFCB29",
"O  c #FECC28",
"+  c #FFCC28",
"@  c #FECC29",
"#  c #FFCC29",
"$  c #FECC2A",
"%  c #FFCC2A",
"&  c #FECC2B",
"*  c #FFCC2B",
"=  c #FECC2C",
"-  c #FFCC2C",
";  c #FECC2D",
":  c #FFCC2D",
">  c #FECD2D",
",  c #FFCD2D",
"<  c #FECD2E",
"1  c #FFCD2E",
"2  c #FECD2F",
"3  c #FECD30",
"4  c #FFCD30",
"5  c #FECE31",
"6  c #FFCE31",
"7  c #FECE32",
"8  c #FFCE32",
"9  c #FECE33",
"0  c #FFCE33",
"q  c #FECE34",
"w  c #FFCE34",
"e  c #FECE35",
"r  c #FFCE35",
"t  c #FFCF35",
"y  c #FECF36",
"u  c #FECF37",
"i  c #FECF38",
"p  c #FFCF38",
"a  c #FED03A",
"s  c #FED03B",
"d  c #FFD03B",
"f  c #FED03C",
"g  c #FFD03C",
"h  c #FED03D",
"j  c #FED03E",
"k  c #FED13E",
"l  c #FED13F",
"z  c #FED140",
"x  c #FED141",
"c  c #FFD141",
"v  c #FED242",
"b  c #FED243",
"n  c #FFD243",
"m  c #FED244",
"M  c #FED245",
"N  c #FFD245",
"B  c #FED246",
"V  c #FED346",
"C  c #FED347",
"Z  c #FED348",
"A  c #FED349",
"S  c #FFD349",
"D  c #FED34A",
"F  c #FED44A",
"G  c #FED44B",
"H  c #FED44C",
"J  c #FED44D",
"K  c #FFD44E",
"L  c #FED54E",
"P  c #FED54F",
"I  c #FED550",
"U  c #FED551",
"Y  c #FED552",
"T  c #FED553",
"R  c #FED653",
"E  c #FED654",
"W  c #FED655",
"Q  c #FED656",
"!  c #FED757",
"~  c #FED758",
"^  c #FED75B",
"/  c #FED85B",
"(  c #FED85C",
")  c #FED85D",
"_  c #FED85E",
"`  c #FED85F",
"'  c #FED960",
"]  c #FED962",
"[  c #FED963",
"{  c #FED964",
"}  c #FEDA64",
"|  c #FEDA65",
" . c #FEDA66",
".. c #FEDA67",
"X. c #FEDA68",
"o. c #FEDB69",
"O. c #FEDB6A",
"+. c #FEDB6B",
"@. c #FEDB6C",
"#. c #FEDC6C",
"$. c #FEDC6D",
"%. c #FEDC6E",
"&. c #FEDC6F",
"*. c #FEDD71",
"=. c #FEDD72",
"-. c #FEDD73",
";. c #FEDD74",
":. c #FEDE75",
">. c #FEDE77",
",. c #FEDE78",
"<. c #FEDF79",
"1. c #FEDF7A",
"2. c #FEDF7D",
"3. c #FEE07D",
"4. c #FEE07E",
"5. c #FEE07F",
"6. c #FEE080",
"7. c #FEE081",
"8. c #FEE183",
"9. c #FEE184",
"0. c #FEE185",
"q. c #FEE286",
"w. c #FEE287",
"e. c #FEE288",
"r. c #FEE289",
"t. c #FEE38B",
"y. c #FEE38C",
"u. c #FEE38D",
"i. c #FEE48F",
"p. c #FEE490",
"a. c #FEE592",
"s. c #FEE593",
"d. c #FEE594",
"f. c #FEE595",
"g. c #FEE596",
"h. c #FEE597",
"j. c #FEE696",
"k. c #FEE697",
"l. c #FEE698",
"z. c #FEE699",
"x. c #FEE69A",
"c. c #FEE79C",
"v. c #FEE79D",
"b. c #FEE79E",
"n. c #FEE79F",
"m. c #FEE89F",
"M. c #FEE8A1",
"N. c #FEE8A2",
"B. c #FEE8A3",
"V. c #FEE9A3",
"C. c #FEE9A4",
"Z. c #FEE9A5",
"A. c #FEEAA8",
"S. c #FEEAA9",
"D. c #FEEAAA",
"F. c #FEEAAB",
"G. c #FEEBAB",
"H. c #FEEBAC",
"J. c #FEEBAE",
"K. c #FEEBAF",
"L. c #FEECB0",
"P. c #FEECB1",
"I. c #FEECB3",
"U. c #FEECB4",
"Y. c #FEEDB4",
"T. c #FEEDB5",
"R. c #FEEDB6",
"E. c #FEEDB9",
"W. c #FEEEBB",
"Q. c #FEEFBC",
"!. c #FEEEBD",
"~. c #FEEFBD",
"^. c #FEEFBE",
"/. c #FEEFBF",
"(. c #FEEFC0",
"). c #FEEFC1",
"_. c #FEF0C1",
"`. c #FEF0C2",
"'. c #FEF0C3",
"]. c #FEF0C4",
"[. c #FEF0C5",
"{. c #FEF1C6",
"}. c #FEF1C7",
"|. c #FEF1C8",
" X c #FEF1C9",
".X c #FEF2C8",
"XX c #FEF1CA",
"oX c #FEF2CA",
"OX c #FEF2CB",
"+X c #FEF2CC",
"@X c #FEF2CD",
"#X c #FEF2CE",
"$X c #FEF3CE",
"%X c #FEF3CF",
"&X c #FEF3D0",
"*X c #FEF3D1",
"=X c #FEF3D2",
"-X c #FEF4D3",
";X c #FEF4D4",
":X c #FEF4D5",
">X c #FEF4D6",
",X c #FEF5D6",
"<X c #FEF5D7",
"1X c #FEF5D8",
"2X c #FEF5DA",
"3X c #FEF5DB",
"4X c #FEF6DA",
"5X c #FEF6DB",
"6X c #FEF6DC",
"7X c #FEF6DF",
"8X c #FEF7DF",
"9X c #FEF7E0",
"0X c #FEF7E1",
"qX c #FEF7E2",
"wX c #FEF7E3",
"eX c #FEF8E2",
"rX c #FEF8E4",
"tX c #FEF8E5",
"yX c #FEF8E6",
"uX c #FEF9E7",
"iX c #FEF9E8",
"pX c #FEF9E9",
"aX c #FEF9EA",
"sX c #FEF9EB",
"dX c #FEFAEA",
"fX c #FEFAEB",
"gX c #FEF9EC",
"hX c #FEFAEC",
"jX c #FEFAED",
"kX c #FEFAEF",
"lX c #FEFBEF",
"zX c #FEFAF0",
"xX c #FEFBF0",
"cX c #FEFBF1",
"vX c #FEFBF2",
"bX c #FEFBF3",
"nX c #FEFCF2",
"mX c #FEFBF4",
"MX c #FEFCF4",
"NX c #FEFCF6",
"BX c #FEFCF7",
"VX c #FEFDF7",
"CX c #FEFCF8",
"ZX c #FEFDF8",
"AX c #FEFCF9",
"SX c #FEFDF9",
"DX c #FEFDFA",
"FX c #FEFDFB",
"GX c #FEFEFB",
"HX c #FDFDFD",
"JX c #FEFDFC",
"KX c #FEFDFD",
"LX c #FEFEFC",
"PX c #FEFEFD",
"IX c #FEFEFE",
"UX c white",
/* pixels */
"IXIXIXIXIXIXIXIXIXIXIXIXIXIXIXIXIXIXIXIXIXIXIXIXIXIXIXIXIXIXIXIXIXIXIXIXIXIXIXIXIXIXIXIXIXIXIXIX",
"IXIXIXIXIXIXIXIXIXIXIXIXIXIXIXIXIXIXIXIXnX8X%X.X.X1XpXFXIXIXIXIXIXIXIXIXIXIXIXIXIXIXIXIXIXIXIXIX",
"IXIXIXIXIXIXIXIXIXIXIXIXIXIXIXIXtXA.=.S , # # . # # # h ( a.*XFXIXIXIXIXIXIXIXIXIXIXIXIXIXIXIXIX",
"IXIXIXIXIXIXIXIXIXIXIXIXIXFX~.} , O # # O O # O # # # # # # # C z.pXIXIXIXIXIXIXIXIXIXIXIXIXIXIX",
"IXIXIXIXIXIXIXIXIXIXIXIX~.P # X # # X X # X X X . X # X # X X # X t i.cXIXIXIXIXIXIXIXIXIXIXIXIX",
"IXIXIXIXIXIXIXIXIXIXpX#.# # X O # # O X O # X # O # O O # # O # . # # c ~.IXIXIXIXIXIXIXIXIXIXIX",
"IXIXIXIXIXIXIXIXIX[.h O # O O O # # O O O # X # O # # O O O O O # # # # , 9.FXIXIXIXIXIXIXIXIXIX",
"IXIXIXIXIXIXIXIXA., # # # O # # # # # # # c Y ( ! C 9 O # # # # # # # # # # } cXIXIXIXIXIXIXIXIX",
"IXIXIXIXIXIXIXC., # # # # X # # X t >.E.iXNXIX0XC.).1X%Xa.H X # . X # . X # X ( nXIXIXIXIXIXIXIX",
"IXIXIXIXIXIXR., # X X # X X X t d.jXHXIXHXHXIX%X# # , P p.,X~.! # X # X X # X # o.FXIXIXIXIXIXIX",
"IXIXIXIXIX,X9 O # O # . X # o.yXIXIXHXIXIXIXIX%X# X # # X , %.:XB.9 # O O O O O # t.IXIXIXIXIXIX",
"IXIXIXIXNXP # O # O # # X d.IXIXIXIXIXIXIXIXjX).} P , # # # X , d.%Xc X # # # # # , [.IXIXIXIXIX",
"IXIXIXIXd.# # # # # # # A.IXIXIXIXIXAXW.=.d # ( IXIXNX%X9.i # # # } 1XC # # X # # # C nXIXIXIXIX",
"IXIXIXtX9 # O O . . # d.HXHXHXHXIX~.Z X X X X ( HXIXHXHXIXjX1.# O X ( ,Xt O . . O . X z.IXIXIXIX",
"IXIXIX9.# O O O . # } FXIXIXHXNX7.# X X X X X ` IXIXIXIXIXIXIXu.X X # >.R.# . X O . X h nXIXIXIX",
"IXIXnXt # # # # # 9 0XIXIXIXFX%.# # # # X Z %.u.:XjXIXIXIXIXcXP   . # # R.#.# X # # # # A.IXIXIX",
"IXIXA.# X X X # X t.IXIXIXIXt.# X # # } %XHXIX).= t } ).IXIX>.. # # # . b *X, . X # . # ! IXIXIX",
"IXIXo.O X # O X , yXIXIXIX.XX O X # 9.NXHXHXIX).X X # # >.d.# # O   # # O C.%.X # #   # , tXIXIX",
"IXFXt . # . O # o.IXIXIXAX~ # # X =.IXIXHXHXIX).X # # # # # # # X . # O   U ^.X O O   # # J.IXIX",
"IX,X# O # # X # A.IXIXIX%XX . # t pXIXIXIXIXIX X# X # # # # # # # # # # # , ;Xt O # # # # 7.IXIX",
"IXL.# # # O O X 3XHXIXIXt.. # # 9.IXHXIXIXHXIX X# # # O # # O # # # # # # # J.( # . # # # ^ IXIX",
"IXd.# # X O . t NXHXHXIXY # # # [.IXHXIXHXHXIX X# # O O # O O #   . O   # # t.2.#   # #   b FXIX",
"IX9.# # X X X c AXIXIXIX9 # # , yXIXIXIXIXIXIX%X# # # 9 9 , # # # # # # # # >.a.# # # # # u DXIX",
"IX7.# O X # X Z IXIXIXAX# # X 9 jXIXIXIXHXHXIX.X# . # ~.FXDXDXBXJ.# # # # # #.n.# O O # # 9 BXIX",
"IX9.# # X O # C AXIXIXAXX X # # 0XHXIXIXIXIXIX%X# # # '.IXIXIXIXHXh # # # # >.d.# # # # # t FXIX",
"IXd.. X X . X t NXIXIXHXh # . . U.IXHXHXAXIXIX%X. # X [.IXIXIXIXHXb # #     9.9.O X X O . c FXIX",
"IXA.X # X O O # 0XIXIXIX} # X X ] HXHXIXHXHXIX%XX # X =.z.cXFXIXIXc # # # # A.} # . # # # ! IXIX",
"IX%XX # # # # # P.IXIXIXn.X # X X P.IXIXHXHXIX=X# # X X X ~.IXIXHXM # O # # ;Xh # O # # . >.IXIX",
"IXcX, # X X X # 1.IXIXIXpX9 . # X t ).IXIXIXIX=XX # X X X ~.IXIXIXS # O # C .X. # # . # # C.IXIX",
"IXIX~ O X # O X i cXIXIXIXt.. O X X , u.pXIXIX=X# # X X 1.cXHXIXHXS # # # z.7.. # # . # # 1XIXIX",
"IXIXn.O # . O # X B.IXIXIXcXP X # # X X t 1.P.~.t h *. XHXHXHXHXIXP O # u 2Xt X O O . # P FXIXIX",
"IXIXtX, # # O # = i jXIXIXIX0XC # # # # # # X o.cXFXHXIXIXIXHXIXHXL # # n.q.O # # # # # d.IXIXIX",
"IXIXIX=.X # X # # . 5.IXIXIXIX0X` X X . # # # %.IXIXIXIXIXIXIXIXIXY X ( %X# X X # . O 9 iXIXIXIX",
"IXIXIX,X# O X . X X # R.IXIXIXIXAXA.C . . . # #.IXIXIXFXA.z.IXIXIXY C 1XC # # X # . # 7.HXIXIXIX",
"IXIXIXIX3.O # # # # # 9 .XIXIXHXIXIXAX).7.Y 9 o.IX8XN.P # %.[.[..Xo.1X( O # O # # # i pXIXIXIXIX",
"IXIXIXIXpXh # # # # O # t ~.IXIXIXIXIXIXIXIXFX%X9 # # X # # # # } 8X( # # # . # # O A.IXIXIXIXIX",
"IXIXIXIXIX~., # X # # # X = d.AXIXIXIXIXIXIXIX=XX X # # # # h J.%Xc # X # # # # # #.IXIXIXIXIXIX",
"IXIXIXIXIXIXa.# O # # . X X X P ).FXIXAXIXIXIX.X. . X X ! A.8X2.= X # . . # X # P lXIXIXIXIXIXIX",
"IXIXIXIXIXIXIX5.# # # . # # . X X ! B.0XFXIXIX*X} 9.P.:X~.>., # X X . # # # X c eXIXIXIXIXIXIXIX",
"IXIXIXIXIXIXIXFX8.# # . X # X X X X X X C } 5.9.7.=.! 9 X X X X X X X # X # Z 0XIXIXIXIXIXIXIXIX",
"IXIXIXIXIXIXIXIXHXn., # # # # # # # O # # # # O O # . O # # O # # # # # # ( jXIXIXIXIXIXIXIXIXIX",
"IXIXIXIXIXIXIXIXIXIX.XS # # # O # O O # O O # O O # O O # O O # # . # 9 d.FXIXIXIXIXIXIXIXIXIXIX",
"IXIXIXIXIXIXIXIXIXIXIXNXa.t X # . # X # # . X # . X # # . # O # # # } 1XIXIXIXIXIXIXIXIXIXIXIXIX",
"IXIXIXIXIXIXIXIXIXIXIXIXHXpXa.h X # # # O # # # # # . # X # # 9 o..XIXIXIXIXIXIXIXIXIXIXIXIXIXIX",
"IXIXIXIXIXIXIXIXIXIXIXIXIXIXIXNX'.5.C , # # # # # # # # d } B.tXIXIXIXIXIXIXIXIXIXIXIXIXIXIXIXIX",
"IXIXIXIXIXIXIXIXIXIXIXIXIXIXIXIXIXIXFXpX%XL.B.m.m.A.'.eXFXIXIXIXIXIXIXIXIXIXIXIXIXIXIXIXIXIXIXIX",
"IXIXIXIXIXIXIXIXIXIXIXIXIXIXIXIXIXIXIXIXIXIXIXIXIXIXIXIXIXIXIXIXIXIXIXIXIXIXIXIXIXIXIXIXIXIXIXIX",
"IXIXIXIXIXIXIXIXIXIXIXIXIXIXIXIXIXIXIXIXIXIXIXIXIXIXIXIXIXIXIXIXIXIXIXIXIXIXIXIXIXIXIXIXIXIXIXIX"
};
