/* XPM */
static char *de5ffcb6a7184149f23a82c2247f7bb51HKqEkMCCHjjow6D[] = {
/* columns rows colors chars-per-pixel */
"16 16 119 2 ",
"   c #FECC29",
".  c #FFCC29",
"X  c #FECC2A",
"o  c #FFCC2A",
"O  c #FFCC2B",
"+  c #FECC2C",
"@  c #FECD2F",
"#  c #FECD30",
"$  c #FECE31",
"%  c #FECE33",
"&  c #FECE35",
"*  c #FECF38",
"=  c #FECF39",
"-  c #FED039",
";  c #FED03A",
":  c #FED03B",
">  c #FED03C",
",  c #FED03D",
"<  c #FED13F",
"1  c #FED140",
"2  c #FED243",
"3  c #FED244",
"4  c #FED246",
"5  c #FED346",
"6  c #FED348",
"7  c #FED34A",
"8  c #FED44B",
"9  c #FED44C",
"0  c #FED54F",
"q  c #FED551",
"w  c #FED552",
"e  c #FED553",
"r  c #FED654",
"t  c #FED656",
"y  c #FED657",
"u  c #FED85C",
"i  c #FED860",
"p  c #FED960",
"a  c #FED962",
"s  c #FEDA64",
"d  c #FEDA65",
"f  c #FEDA67",
"g  c #FEDA68",
"h  c #FEDB69",
"j  c #FEDB6A",
"k  c #FEDB6B",
"l  c #FEDC6C",
"z  c #FEDC6F",
"x  c #FEDC70",
"c  c #FEDD71",
"v  c #FEDD73",
"b  c #FEDE76",
"n  c #FEDE79",
"m  c #FEDF7A",
"M  c #FEE07D",
"N  c #FEE07E",
"B  c #FEE07F",
"V  c #FEE183",
"C  c #FEE38C",
"Z  c #FEE490",
"A  c #FEE593",
"S  c #FEE594",
"D  c #FEE697",
"F  c #FEE69A",
"G  c #FEE8A0",
"H  c #FEE9A4",
"J  c #FEEAA8",
"K  c #FEEAAA",
"L  c #FEEAAB",
"P  c #FEEBAB",
"I  c #FEEBAE",
"U  c #FEEDB6",
"Y  c #FEEDB7",
"T  c #FEEEBB",
"R  c #FEEFBF",
"E  c #FEEFC0",
"W  c #FEEFC1",
"Q  c #FEF0C2",
"!  c #FEF0C5",
"~  c #FEF2CA",
"^  c #FEF2CB",
"/  c #FEF3D0",
"(  c #FEF3D1",
")  c #FEF3D3",
"_  c #FEF4D3",
"`  c #FEF4D4",
"'  c #FEF4D5",
"]  c #FEF5D5",
"[  c #FEF5D7",
"{  c #FEF5DA",
"}  c #FEF7E1",
"|  c #FEF8E3",
" . c #FEF8E4",
".. c #FEF8E6",
"X. c #FEF9E6",
"o. c #FEF9EA",
"O. c #FEFAEA",
"+. c #FEF9EC",
"@. c #FEFAEC",
"#. c #FEFAED",
"$. c #FEFAEE",
"%. c #FEFAEF",
"&. c #FEFAF0",
"*. c #FEFBF0",
"=. c #FEFBF1",
"-. c #FEFCF2",
";. c #FEFBF4",
":. c #FEFDF6",
">. c #FEFCF7",
",. c #FEFDF7",
"<. c #FEFDF8",
"1. c #FEFDF9",
"2. c #FEFDFA",
"3. c #FEFEFB",
"4. c #FEFDFC",
"5. c #FEFDFD",
"6. c #FEFEFD",
"7. c #FEFEFE",
"8. c white",
/* pixels */
"8.8.8.8.8.;.Q J J ^ 1.8.8.8.8.8.",
"8.8.8.@.m # . . . . ; S ,.8.8.8.",
"8.8.` ,     y n f 8 . . w O.8.8.",
"8.X.; . e { 4.@.& 9 v , . w 1.8.",
"8.k   e ;.( u = 8._ w f ; . S 8.",
"X..   ) ( # n W v ! 9 . k . , 1.",
"J   w 4.a k 8.o.    . . a # . ` ",
"Z   b 8.# I 8.o.. h f . 2 9 . T ",
"Z   z 8.# F 8.;.. ` 8.# 7 4   W ",
"T   2 1.v = ^ @.. h 8.& f     } ",
";.@ . T  .4 @ i Q ,.8., k   0 8.",
"8.C . = { ;.H m J f J m     U 8.",
"8.,.e   & G ;.@.4 k k +   n 8.8.",
"8.8.@.f . . + 4 2       V 1.8.8.",
"8.8.8.8.U y +   . @ k ^ 8.8.8.8.",
"8.8.8.8.8.8.,.}  .1.8.8.8.8.8.8."
};
