/* XPM */
static char *_8dc6e966bf04599dcd45d3acea46a09Yk26oMzFS3mZ9EQ3[] = {
/* columns rows colors chars-per-pixel */
"128 128 33 1 ",
"  c #FFCC29",
". c #FFCE33",
"X c #FFCF39",
"o c #FFD03C",
"O c #FFD243",
"+ c #FED44C",
"@ c #FED653",
"# c #FED759",
"$ c #FFD85D",
"% c #FED963",
"& c #FEDB6C",
"* c #FEDD74",
"= c #FEDF7A",
"- c #FEE07E",
"; c #FEE183",
": c #FEE38B",
"> c #FEE593",
", c #FEE79C",
"< c #FEE89F",
"1 c #FEE9A4",
"2 c #FEEBAC",
"3 c #FEEDB4",
"4 c #FEEEBB",
"5 c #FEEFC0",
"6 c #FEF1C5",
"7 c #FEF2CB",
"8 c #FEF4D4",
"9 c #FEF6DB",
"0 c #FEF7E1",
"q c #FEF8E5",
"w c #FEFAEB",
"e c #FEFBF3",
"r c #FFFFFF",
/* pixels */
"rrrrrrrrrrrrrrrrrrrrrrrrrrrrrrrrrrrrrrrrrrrrrrrrrrrrrrrrrrrrrrrrrrrrrrrrrrrrrrrrrrrrrrrrrrrrrrrrrrrrrrrrrrrrrrrrrrrrrrrrrrrrrrrr",
"rrrrrrrrrrrrrrrrrrrrrrrrrrrrrrrrrrrrrrrrrrrrrrrrrrrrrrrrrrrrrrrrrrrrrrrrrrrrrrrrrrrrrrrrrrrrrrrrrrrrrrrrrrrrrrrrrrrrrrrrrrrrrrrr",
"rrrrrrrrrrrrrrrrrrrrrrrrrrrrrrrrrrrrrrrrrrrrrrrrrrrrrrrrrrrrrrrrrrrrrrrrrrrrrrrrrrrrrrrrrrrrrrrrrrrrrrrrrrrrrrrrrrrrrrrrrrrrrrrr",
"rrrrrrrrrrrrrrrrrrrrrrrrrrrrrrrrrrrrrrrrrrrrrrrrrrrrrrrrrrrrrrrrrrrrrrrrrrrrrrrrrrrrrrrrrrrrrrrrrrrrrrrrrrrrrrrrrrrrrrrrrrrrrrrr",
"rrrrrrrrrrrrrrrrrrrrrrrrrrrrrrrrrrrrrrrrrrrrrrrrrrrrrrre08653222334679wrrrrrrrrrrrrrrrrrrrrrrrrrrrrrrrrrrrrrrrrrrrrrrrrrrrrrrrrr",
"rrrrrrrrrrrrrrrrrrrrrrrrrrrrrrrrrrrrrrrrrrrrrrrrrww72;%@+XXX... ....o++#*,40werrrrrrrrrrrrrrrrrrrrrrrrrrrrrrrrrrrrrrrrrrrrrrrrrr",
"rrrrrrrrrrrrrrrrrrrrrrrrrrrrrrrrrrrrrrrrrrrrrr03:%X                        .@=<8errrrrrrrrrrrrrrrrrrrrrrrrrrrrrrrrrrrrrrrrrrrrrr",
"rrrrrrrrrrrrrrrrrrrrrrrrrrrrrrrrrrrrrrrrrre92%O.                              .o+>7eerrrrrrrrrrrrrrrrrrrrrrrrrrrrrrrrrrrrrrrrrrr",
"rrrrrrrrrrrrrrrrrrrrrrrrrrrrrrrrrrrrrrrrw2*.                                       @>8errrrrrrrrrrrrrrrrrrrrrrrrrrrrrrrrrrrrrrrr",
"rrrrrrrrrrrrrrrrrrrrrrrrrrrrrrrrrrrrre8:+                                           .o&4wrrrrrrrrrrrrrrrrrrrrrrrrrrrrrrrrrrrrrrr",
"rrrrrrrrrrrrrrrrrrrrrrrrrrrrrrrrrrre8=o                                                .%2errrrrrrrrrrrrrrrrrrrrrrrrrrrrrrrrrrrr",
"rrrrrrrrrrrrrrrrrrrrrrrrrrrrrrrrre7=. .                                                  .@2wrrrrrrrrrrrrrrrrrrrrrrrrrrrrrrrrrrr",
"rrrrrrrrrrrrrrrrrrrrrrrrrrrrrrrrq>X                                                         %6errrrrrrrrrrrrrrrrrrrrrrrrrrrrrrrr",
"rrrrrrrrrrrrrrrrrrrrrrrrrrrrrrw2X                                                            .;9rrrrrrrrrrrrrrrrrrrrrrrrrrrrrrrr",
"rrrrrrrrrrrrrrrrrrrrrrrrrrrrr9&.                                                               O3errrrrrrrrrrrrrrrrrrrrrrrrrrrrr",
"rrrrrrrrrrrrrrrrrrrrrrrrrrre<o                                                                  .&0rrrrrrrrrrrrrrrrrrrrrrrrrrrrr",
"rrrrrrrrrrrrrrrrrrrrrrrrrrw-.                                                                     @6errrrrrrrrrrrrrrrrrrrrrrrrrr",
"rrrrrrrrrrrrrrrrrrrrrrrre7+                                                                        .<errrrrrrrrrrrrrrrrrrrrrrrrr",
"rrrrrrrrrrrrrrrrrrrrrrrr4O                                                                          .-errrrrrrrrrrrrrrrrrrrrrrrr",
"rrrrrrrrrrrrrrrrrrrrrre>.                                      .                                      %9rrrrrrrrrrrrrrrrrrrrrrrr",
"rrrrrrrrrrrrrrrrrrrrre>.                               ..Xo+%&&=%%+O.X.                                $9errrrrrrrrrrrrrrrrrrrrr",
"rrrrrrrrrrrrrrrrrrrre-.                             O%;159eeeeeerrrrq73>*+.                             @8rrrrrrrrrrrrrrrrrrrrrr",
"rrrrrrrrrrrrrrrrrrre:                           .+=3qeeeeeeeeee880qwerreeq7>#X                           @8rrrrrrrrrrrrrrrrrrrrr",
"rrrrrrrrrrrrrrrrrre;                          .*2eeeeeeeeeeeeee= .O%=,40errre6>+                          @9rrrrrrrrrrrrrrrrrrrr",
"rrrrrrrrrrrrrrrrre>                        .+>9erreeeeeeeeeeeee-      .O#>6qereq2#.                        $0rrrrrrrrrrrrrrrrrrr",
"rrrrrrrrrrrrrrrrr1.                       X>9eeeeeeeeeeeeeeeeee-          .#:7erew2@.                       %errrrrrrrrrrrrrrrrr",
"rrrrrrrrrrrrrrrr7.                      X=0eeeeeeeeeeeeeeeeeeee-             X#2weew1+                       ;errrrrrrrrrrrrrrrr",
"rrrrrrrrrrrrrrr9@                      +3eeeeeeeeeeeeeeeeeeeeee:                #2eee8*.                     X1rrrrrrrrrrrrrrrrr",
"rrrrrrrrrrrrrre$                     .-eeeeeeeeeeeeeeeeeeeeerrr-                 .+2wee3O                     .7rrrrrrrrrrrrrrrr",
"rrrrrrrrrrrrrr<                     X<eerreeeeeeeeeeeeeeeeeerrr;                   .&9ee7@                     %qrrrrrrrrrrrrrrr",
"rrrrrrrrrrrrr4o                    @7reeeeeeeeeeeeeeeeeeeeeeere>..                   X,wee=.                    =rrrrrrrrrrrrrrr",
"rrrrrrrrrrrre#                    #8eeeeeeeeeeeeeeeeeeeeeee941>4442,-%X               .*wee;                    .6rrrrrrrrrrrrrr",
"rrrrrrrrrrre>                    %qreeerrrrrrrrrrrrree83=@.    3rrerrrr02=+.            +5rr>.                   @0rrrrrrrrrrrrr",
"rrrrrrrrrrr8O                   #9errrrrrereerrerree3*+        3errrrrerre03&.           O4re>                    >rrrrrrrrrrrrr",
"rrrrrrrrrre&                   +wrrrrrrrrerrreree8>X           4rrrrerrrrrrrr8:X          X2rr:.                  X8rrrrrrrrrrrr",
"rrrrrrrrrr6.                  +7rerrrrrrrrrrreeq>O            .3rrerrrerrrrrrre5&          X3ew=                   =errrrrrrrrrr",
"rrrrrrrrrw%                  .5rreeerrrrrerrrw2O               3eeeerrerrrrerrrre1O         X3re#                  X5rrrrrrrrrrr",
"rrrrrrrrr3.                 .>errrerererrrreq*.                3rrrrrrrrrreerrrrre7O         O8r7+                  &rrrrrrrrrrr",
"rrrrrrrre%                  *wrrrrrerrerrrr5+                  3errereerreerrrrrrrr8@         @9r3                  X7rrrrrrrrrr",
"rrrrrrrr6.                 o9rerrerrrrrrre2O                   3rrrrrrrrrrrrerrerrre=          &er*                  =errrrrrrrr",
"rrrrrrre*                 .1errrrerrrrrre1.                    4rrrrrrrrrrerrrrrrrr1.           3r9+                 X9rrrrrrrrr",
"rrrrrrr9o                 %errrrreeerree1X               .+#%&*4qweeerrrrrrrrrrrrr7X            +8e2                  >rrrrrrrrr",
"rrrrrrr>                 .6errrrrrrrrrr3X              +>4weerr;@%*:3qrrrrrrrrrer0#              =re$                 @errrrrrrr",
"rrrrrre@                 =errrrererrrr7O.           .%3eereeeee&    .o&3qrrrrreee&               .5r3X                .4rrrrrrrr",
"rrrrrr6o                X6rrrerrrerrrw%            O2eeereeeree&       .$3rrrrrr1                 &ee%                 ;errrrrrr",
"rrrrrr:                 *eeerrrrrrrre:           .%9eeeereeerre=         .%7err3X                 .4r4                 +wrrrrrrr",
"rrrrrw#                 5eererrrrrrr5X          .=eeeeeeeeeerre*           O3rqO                   &rw@                 7rrrrrrr",
"rrrrr9                 %wrrreeerrrrw#          .;eeeeeeeeeeerre*             =$                    .7r<                 :rrrrrrr",
"rrrrr2                 :errrrrrrrre4.         .%wrreeeeeeeeeeee*                                    >e8X                @errrrrr",
"rrrrr*                o8rrreererrrw#          +werereeeeeeeeeee*                                    @qr&                O9rrrrrr",
"rrrre@                @eerrerreree5.         .2errereeeeeeeeeee=                                    .6r1                .4rrrrrr",
"rrrr7o                >rrrrrrrrree%.         =errrrreeeeeeeeeee=                                     :r9.                >rrrrrr",
"rrrr4.                7rrrerrrerr0          X9rreeeeeeeeeeeeeee*                                     @rw#                *errrrr",
"rrrr,                O0rrrrrrrrrr,          =eereeeeeeeeeeeeerr=                                     X9e;                @errrrr",
"rrre=                &wrreerrerre%         X4eereeeeeeeeeeeeeee=                                     .3r1                owrrrrr",
"rrre%                ;errrrrrrrr8+         #wrrreeeeeeeeeeeeeee*                                      >r7.                9rrrrr",
"rrre@                1rrrrrrrrrr4.         ;errreeeeeeeeeeeeeee=                                      =e0O                6rrrrr",
"rrreX               .3rrrrrerrrr>          4rrereeeeeeeeeeeeeee-                                      %weO                2rrrrr",
"rrrw                .7rrrrrrrerr&         .0rreeeeeeeeeeeeeeeee=                                      @qr#                ,rrrrr",
"rrr0                .9rrrrrrrrrr+         Owerereeeeeeeeeeeeeee=                                      O0r&                :rrrrr",
"rrr8                XqrrrrrrrrrrX         %eeerreeeeeeeeeeeeeee-        .X.. . .                      .9r=                ;rrrrr",
"rrr8                oerreeerrerr          %errrreeeeeeeeeeeeeee=        @355333232221=X               .9r;                =rrrrr",
"rrr7                Xerrererrrrw          %errrreeeeeeeeeeeeeee-        %eeerrrrrererr9#               9r;                *rrrrr",
"rrr7                oerrrrrrrrrw          %errrreeeeeeeeeeeeeee;        %errrrrrrrrrrrr4.              9r;                *rrrrr",
"rrr8                Oeeeeeeeeeee          @eeeeerrrrrrrerrrrrer=        %ererrreeeeeeeee%             .8r;                -rrrrr",
"rrr8                Xeeeeeeeeeee          Xweeeerrrrrerererrrer=        &errrreeeeeeeeee%.            X9r=                -rrrrr",
"rrrq                X9eeeeeeeeee.          8eeeerrerrererererrr=        &errerreeeeeeeee%             +0r&                :rrrrr",
"rrrw.               X6ereeeeeeee+         .3eeeerrrrrrrrrrrrrer=        *errrrrreeeeeeee&             #qe#                ,rrrrr",
"rrrwo               .3rreeeeeeee%          %ereeerrrrrrrrrrrrrr-        *erererreeeeeeee&             %eeO                2rrrrr",
"rrre+                ,ereeeeeeee>          O8reeeererrrrreeerrr=        *errrrrreeeeeeee&             ;e9O                6rrrrr",
"rrre%                ;eeeeeeeeee3           >eeerrrrrrrrrrerrrr;        +,124eereeeeeeee*            .,r4.                0rrrrr",
"rrrr=               .%eeeeeeeeee8O          Oweererrrerrerrerer;         ...X=wreeeeeeee*            .5r<                owrrrrr",
"rrrr<                O9reeeeeeeew%           =eererereeererrerr;             o7reeeeeeee*            Xwe-                #errrrr",
"rrrr4X                5reeeeeeeer,           X2errrreeeerrrreee;             X7reeeeeeee=            %ee#                =errrrr",
"rrrr8O                :reeeeeeeer0.           X8rrrreeeeerreere;            .o7reeeeeeee=            <r9.                ,errrrr",
"rrrre@                @eeeeeeeeere%            +7ereeeeerrrrrrr:             X7reeeeeeee=           .8r<                X4rrrrrr",
"rrrrr=                .7eeeeeeeerr4.            +8eeeeeerrerrrr;             o7reeeeeeee=           %ee%                +0rrrrrr",
"rrrrr2                 >eeeeeeeerrw&             O1weeeerrrrrrr;             %0reeeeeeee-           <e7X                #errrrrr",
"rrrrr0.                #eeeeeeeerrr6              .=9eeereerrrr:          ..*wrreeeeeeee-          Xqe,.                >rrrrrrr",
"rrrrrw%                 5eeeeeeeerre;.              X:9ereerrre:          +3eereeeeeeerr;          ;rw+                .8rrrrrrr",
"rrrrrr>                 #erreeeereeew@                O*5ereeee:        X:9errrrrrrerrer;         O7e3                 @qrrrrrrr",
"rrrrrr7X                .4rreeeereeee8X                  X*260e>     X#>weeerrrrrrrrrrrr;         :ew@                 :rrrrrrrr",
"rrrrrre#                 *wreeeeeeeeee,X                    X+&1;=*:17wererrrrrerrreerre:        .9r3X                .6rrrrrrrr",
"rrrrrrr1                 .5eeeeeeeeeeer<.                     X7errerrrrrrrrrerrrreerrrr:        >rw+                 #errrrrrrr",
"rrrrrrr9o                 #wrreeeeeeeeee:.                    o7rrrrreeerrrrerrreeeererr:       #0e1                  <rrrrrrrrr",
"rrrrrrre;                 .>ereeeeeeeeeee,.                   X7rrrrrrerrerreerreeeerrrr>      .7r8O                 o9rrrrrrrrr",
"rrrrrrrr6X                 X8ereeeeeeeeere3+                  X7rrrrrrrrrrrrerreeeeeeeee>     .:re&                  ;errrrrrrrr",
"rrrrrrrrr%                  %ereeeeeeeeeerr8%                 o7rrerrerrrrerreeeeeeeeeee>     &er1                  .8rrrrrrrrrr",
"rrrrrrrrr5.                 .:ereeeeeeeeeeeee2@.              o7errerrerreeew1-reeeeeeee1    +qr5O                  =rrrrrrrrrrr",
"rrrrrrrrre*                  .3eeeeeeeeeeeeeeeq:O             o7eerrrrrrereq=.%eeeeeeeee<.  +8ew+                  X7rrrrrrrrrrr",
"rrrrrrrrrr7X                  O4eeeeeeeeeeeeeeee0>#.          o7rrrrreerr9<O. #eeeeeeeer,  o7ew%                   :errrrrrrrrrr",
"rrrrrrrrrre=                   Oqeeeeeeeeeeeeeerrre3;O        o7errerrr9>+ .  +reeeeeeer, O4ee=.                  Oqerrrrrrrrrrr",
"rrrrrrrrrrr9O                   #7eeeeeeeeeeeeeerrreee8,*@OX. o7rreq72%..     .133333344=@7rw-                    <rrrrrrrrrrrrr",
"rrrrrrrrrrre<                    @qeeeeeeeeeeeeerrrrrerrrw9632,4,:&#X            .      #8re-.                   %qrrrrrrrrrrrrr",
"rrrrrrrrrrrre%                    +5eeeeeeeeeeeerrerreerrerreee>                      .;erq*.                   X8rrrrrrrrrrrrrr",
"rrrrrrrrrrrrr7o                    +6eeeeeeeeeeerrrrrreerrrrerr:                     o1eeq%.                    ;rrrrrrrrrrrrrrr",
"rrrrrrrrrrrrrr3                      ;wrrrrrerrerrrrrrrrrrerrre:                   .*0re4O                     &wrrrrrrrrrrrrrrr",
"rrrrrrrrrrrrrre&                      &9rrrrrrrrrrrrrrrrrrrrrer;                  +3ere,o                     .9rrrrrrrrrrrrrrrr",
"rrrrrrrrrrrrrrrq%                      o1werrrrrerrrrrrereerrer=                #2ere6$                      .3rrrrrrrrrrrrrrrrr",
"rrrrrrrrrrrrrrrr8o                      .&6errrrrrerrrrrrrrrrrr*             .@20rrq:o                       >errrrrrrrrrrrrrrrr",
"rrrrrrrrrrrrrrrrr3o                        *6rrrrrerrrrrrrrrree*           @=7rrr9<O                       .=errrrrrrrrrrrrrrrrr",
"rrrrrrrrrrrrrrrrre2.                        X*5eererrrrrreerrrr&      .X+;4qrre9,+                         &wrrrrrrrrrrrrrrrrrrr",
"rrrrrrrrrrrrrrrrrrr>.                          %,9rrrrerrrrrrre*  .+&;28rrrrw3=.                          %qrrrrrrrrrrrrrrrrrrrr",
"rrrrrrrrrrrrrrrrrrre>.                           O%,8qerrrerree4379qwrrew03=+.                           %9rrrrrrrrrrrrrrrrrrrrr",
"rrrrrrrrrrrrrrrrrrrre>X                             .+*>269wrrrrrre0731;#X                              %0rrrrrrrrrrrrrrrrrrrrrr",
"rrrrrrrrrrrrrrrrrrrrre<X                                .XOOOO+@+OOOXX                                 %qrrrrrrrrrrrrrrrrrrrrrrr",
"rrrrrrrrrrrrrrrrrrrrrre2X                                                                            .=qrrrrrrrrrrrrrrrrrrrrrrrr",
"rrrrrrrrrrrrrrrrrrrrrrrr5+                                                                          X>errrrrrrrrrrrrrrrrrrrrrrrr",
"eerrrrrrrrrrrrrrrrrrrrrrr9%                                                                        X3errrreeeerrrrrrrrrrrrrrrrrr",
"eerrrrrrrrrrrrrrrrrrrrrrrrw>X                                                                     %8rrrrrreeeerrrrrrrrrrrrrrrrrr",
"eerrrrrrrrrrrrrrrrrrrrrrrrre2+                                                                  .;wrrrrrrrrrrrrrrrrrrrrrrrrrrrrr",
"eerrrrrrrrrrrrrrrrrrrrrrrrrrrw=X                                                               @6errrrrrrrrrrrrrrrrrrrrrrrrrrrrr",
"rrrrrrrrrrrrrrrrrrrrrrrrrrrrrre4+                                                            .>0rrrrrrrrrrrrrrrrrrrrrrrrrrrrrrrr",
"rrrrrrrrrrrrrrrrrrrrrrrrrrrrrrrre1+                                                        X-9rrrrrrrrrrrrrrrrrrrrrrrrrrrrrrrrrr",
"rrrrrrrrrrrrrrrrrrrrrrrrrrrrrrrrrr9:X                                                     %4errrrrrrrrrrrrrrrrrrrrrrrrrrrrrrrrrr",
"rrrrrrrrrrrrrrrrrrrrrrrrrrrrrrrrrrrr0>+                                                o*6rrrrrrrrrrrrrrrrrrrrrrrrrrrrrrrrrrrrrr",
"rrrrrrrrrrrrrrrrrrrrrrrrrrrrrrrrrrrrre01@X                                           O;7errrrrrrrrrrrrrrrrrrrrrrrrrrrrrrrrrrrrrr",
"rrrrrrrrrrrrrrrrrrrrrrrrrrrrrrrrrrrrrrrrr5;+                                      o&2wrrrrrrrrrrrrrrrrrrrrrrrrrrrrrrrrrrrrrrrrrr",
"rrrrrrrrrrrrrrrrrrrrrrrrrrrrrrrrrrrrrrrrrreq5=+o                               O%18errrrrrrrrrrrrrrrrrrrrrrrrrrrrrrrrrrrrrrrrrrr",
"rrrrrrrrrrrrrrrrrrrrrrrrrrrrrrrrrrrrrrrrrrrrrre6<-@                        O&:3qrrrrrrrrrrrrrrrrrrrrrrrrrrrrrrrrrrrrrrrrrrrrrrrr",
"rrrrrrrrrrrrrrrrrrrrrrrrrrrrrrrrrrrrrrrrrrrrrrrrrew96,=$@+OooX..XooOO+@*:38qerrrrrrrrrrrrrrrrrrrrrrrrrrrrrrrrrrrrrrrrrrrrrrrrrrr",
"rrrrrrrrrrrrrrrrrrrrrrrrrrrrrrrrrrrrrrrrrrrrrrrrrrrrrrrreq97666466780errrrrrrrrrrrrrrrrrrrrrrrrrrrrrrrrrrrrrrrrrrrrrrrrrrrrrrrrr",
"rrrrrrrrrrrrrrrrrrrrrrrrrrrrrrrrrrrrrrrrrrrrrrrrrrrrrrrrrrrrrrrrrrrrrrrrrrrrrrrrrrrrrrrrrrrrrrrrrrrrrrrrrrrrrrrrrrrrrrrrrrrrrrrr",
"rrrrrrrrrrrrrrrrrrrrrrrrrrrrrrrrrrrrrrrrrrrrrrrrrrrrrrrrrrrrrrrrrrrrrrrrrrrrrrrrrrrrrrrrrrrrrrrrrrrrrrrrrrrrrrrrrrrrrrrrrrrrrrrr",
"rrrrrrrrrrrrrrrrrrrrrrrrrrrrrrrrrrrrrrrrrrrrrrrrrrrrrrrrrrrrrrrrrrrrrrrrrrrrrrrrrrrrrrrrrrrrrrrrrrrrrrrrrrrrrrrrrrrrrrrrrrrrrrrr",
"rrrrrrrrrrrrrrrrrrrrrrrrrrrrrrrrrrrrrrrrrrrrrrrrrrrrrrrrrrrrrrrrrrrrrrrrrrrrrrrrrrrrrrrrrrrrrrrrrrrrrrrrrrrrrrrrrrrrrrrrrrrrrrrr",
"rrrrrrrrrrrrrrrrrrrrrrrrrrrrrrrrrrrrrrrrrrrrrrrrrrrrrrrrrrrrrrrrrrrrrrrrrrrrrrrrrrrrrrrrrrrrrrrrrrrrrrrrrrrrrrrrrrrrrrrrrrrrrrrr",
"rrrrrrrrrrrrrrrrrrrrrrrrrrrrrrrrrrrrrrrrrrrrrrrrrrrrrrrrrrrrrrrrrrrrrrrrrrrrrrrrrrrrrrrrrrrrrrrrrrrrrrrrrrrrrrrrrrrrrrrrrrrrrrrr"
};
