/* XPM */
static char *ee9c9cee8423436b9965efa2c17ab0e86m9lA7D6QVreRmn1[] = {
/* columns rows colors chars-per-pixel */
"32 32 192 2 ",
"   c #FECC29",
".  c #FFCC29",
"X  c #FECC2A",
"o  c #FFCC2A",
"O  c #FECC2B",
"+  c #FFCC2B",
"@  c #FECC2C",
"#  c #FFCC2C",
"$  c #FECD2D",
"%  c #FFCD2D",
"&  c #FECD2E",
"*  c #FFCD2E",
"=  c #FECD2F",
"-  c #FECD30",
";  c #FFCD30",
":  c #FECD31",
">  c #FFCD31",
",  c #FECE32",
"<  c #FFCE33",
"1  c #FECE34",
"2  c #FECF37",
"3  c #FECF38",
"4  c #FFCF38",
"5  c #FFCF39",
"6  c #FED03B",
"7  c #FED03C",
"8  c #FED03D",
"9  c #FED03E",
"0  c #FED13E",
"q  c #FED13F",
"w  c #FED140",
"e  c #FED141",
"r  c #FED142",
"t  c #FED242",
"y  c #FED243",
"u  c #FED244",
"i  c #FED245",
"p  c #FED347",
"a  c #FED349",
"s  c #FED34A",
"d  c #FED44B",
"f  c #FED44C",
"g  c #FED44D",
"h  c #FED550",
"j  c #FED551",
"k  c #FED552",
"l  c #FED553",
"z  c #FED653",
"x  c #FED655",
"c  c #FED656",
"v  c #FED757",
"b  c #FED758",
"n  c #FED759",
"m  c #FED75A",
"M  c #FED85D",
"N  c #FED85E",
"B  c #FED85F",
"V  c #FED960",
"C  c #FED961",
"Z  c #FED962",
"A  c #FED964",
"S  c #FEDA64",
"D  c #FEDA65",
"F  c #FEDA66",
"G  c #FEDA67",
"H  c #FEDB68",
"J  c #FEDB69",
"K  c #FEDB6A",
"L  c #FEDC6D",
"P  c #FEDC6F",
"I  c #FEDD74",
"U  c #FEDE74",
"Y  c #FEDE75",
"T  c #FEDE76",
"R  c #FEDE77",
"E  c #FEDF7B",
"W  c #FEDF7C",
"Q  c #FEDF7D",
"!  c #FEE07D",
"~  c #FEE07F",
"^  c #FEE080",
"/  c #FEE081",
"(  c #FEE182",
")  c #FEE183",
"_  c #FEE184",
"`  c #FEE185",
"'  c #FEE286",
"]  c #FEE288",
"[  c #FEE289",
"{  c #FEE38B",
"}  c #FEE38C",
"|  c #FEE38E",
" . c #FEE48E",
".. c #FEE48F",
"X. c #FEE490",
"o. c #FEE491",
"O. c #FEE492",
"+. c #FEE594",
"@. c #FEE699",
"#. c #FEE69A",
"$. c #FEE79C",
"%. c #FEE79D",
"&. c #FEE79E",
"*. c #FEE89F",
"=. c #FEE8A0",
"-. c #FEE8A2",
";. c #FEE9A5",
":. c #FEE9A6",
">. c #FEE9A7",
",. c #FEEAA8",
"<. c #FEEAA9",
"1. c #FEEAAA",
"2. c #FEEBAC",
"3. c #FEEBAE",
"4. c #FEECB1",
"5. c #FEECB2",
"6. c #FEECB4",
"7. c #FEEDB5",
"8. c #FEEDB6",
"9. c #FEEDB7",
"0. c #FEEDB9",
"q. c #FEEEBB",
"w. c #FEEEBC",
"e. c #FEEFBF",
"r. c #FEEFC1",
"t. c #FEF0C0",
"y. c #FEF0C1",
"u. c #FEF0C2",
"i. c #FEF0C4",
"p. c #FEF1C5",
"a. c #FEF1C6",
"s. c #FEF1C8",
"d. c #FEF1C9",
"f. c #FEF2C9",
"g. c #FEF2CA",
"h. c #FEF2CB",
"j. c #FEF2CD",
"k. c #FEF2CE",
"l. c #FEF3CE",
"z. c #FEF3CF",
"x. c #FEF3D0",
"c. c #FEF3D1",
"v. c #FEF4D4",
"b. c #FEF5D5",
"n. c #FEF4D6",
"m. c #FEF5D6",
"M. c #FEF5D7",
"N. c #FEF5D8",
"B. c #FEF5D9",
"V. c #FEF6D9",
"C. c #FEF6DC",
"Z. c #FEF6DE",
"A. c #FEF7DE",
"S. c #FEF6DF",
"D. c #FEF7DF",
"F. c #FEF7E1",
"G. c #FEF7E2",
"H. c #FEF7E3",
"J. c #FEF8E3",
"K. c #FEF8E7",
"L. c #FEF9E8",
"P. c #FEF9E9",
"I. c #FEF9EA",
"U. c #FEF9EB",
"Y. c #FEF9EC",
"T. c #FEFAEC",
"R. c #FEFAED",
"E. c #FEFAEE",
"W. c #FEFAEF",
"Q. c #FEFBEF",
"!. c #FEFAF0",
"~. c #FEFBF0",
"^. c #FEFBF1",
"/. c #FEFBF2",
"(. c #FEFBF3",
"). c #FEFCF3",
"_. c #FEFBF4",
"`. c #FEFCF4",
"'. c #FEFCF5",
"]. c #FEFCF6",
"[. c #FEFDF7",
"{. c #FEFCF9",
"}. c #FEFDF9",
"|. c #FEFDFA",
" X c #FEFDFB",
".X c #FEFEFB",
"XX c #FEFDFC",
"oX c #FEFDFD",
"OX c #FEFEFC",
"+X c #FEFEFD",
"@X c #FEFEFE",
"#X c white",
/* pixels */
"#X#X#X#X#X#X#X#X#X#X#X#X#X#X#X#X#X#X#X#X#X#X#X#X#X#X#X#X#X#X#X#X",
"#X#X#X#X#X#X#X#X#X#X/.7.^ c 9 ; 1 w Z [ p.|.#X#X#X#X#X#X#X#X#X#X",
"#X#X#X#X#X#X#X#XC.W ;   . . . . . . . . . 9 +.W.#X#X#X#X#X#X#X#X",
"#X#X#X#X#X#X[.} $   O   . . . . . . . . . . . 3 3.#X#X#X#X#X#X#X",
"#X#X#X#X#XJ.l .       O O O O O . . . . . .     . I [.#X#X#X#X#X",
"#X#X#X#XC.w . . O O   O V #.e.h.*.,...l . .   O .   B /.#X#X#X#X",
"#X#X#XL.w . . . O O E F.XX#X#XW.. $ f X.7.Z O O . .   F |.#X#X#X",
"#X#X#XZ . . . . w r.XX#XXX#X#XL.2 $ . . ; } $.$ . .   O X.#X#X#X",
"#X#X:..       9 C.#X#XXXx./ s i oXQ.u.Y @ . m 1.. . . . $ M.#X#X",
"#X).6 .     $ x.#X#X/.R O O O 5 oXoXoXoXx.q . x #.. . . . F #X#X",
"#X:.. . O O +.oX#XW.k O O O m E z.).oXoXR.e . . ~ Z . . . . M.#X",
"#Xc . . O 3 (.oX XF   O M S.oXU.. @ ! R.S . . . $ ,.. . . . [ #X",
"L.$ . . . [ XX#Xq.O O c ].#X#XU.. . . 1 . . . . . ^ x . . . f #X",
"r.. . . . d.#X#XB O O v.#X#XXXU.. . . . . . . . . e O.. . . . /.",
"*.. . . $ W.#X/.#   c  XXX#XXXU.. . . . . . . . . . >.. . . . m.",
"X.. . . 3 |.#Xv.O O E #X#XXX#XY.. . z S V z . . . . >.. . . . a.",
"... . . 3 .XoXl.. . ! oXoXoXoXR.. . 5.oXoXoXJ . . . 1.. . . . u.",
"#.. . . ; [.oXD.. . z oXoXoXoXR.. . 8.oXoXoX! . . . 1.. . . . z.",
"7.. . . . M.oX.X6 . . a.oXoXoXR.. . q ^ oXoX! . . 2 %.. . .   L.",
"D.. . . . $.oXoX' . . e B.oXoXR.$ . . V oXoX^ . . L J . . . q oX",
"oXe . . . z oXoXU.2 . . , ..H.R.. . V D.oXoX^ . . 2.@ . . . Y #X",
"#X| . . . . q.oXoXu.; . . . . z h.H.oXoXoXoX^ . B ' . . .   e.#X",
"#XL.@ . . . e R.oXoXz.s . . . i oXoXoXJ.oXoX' 6 5.@ . . . a .X#X",
"#X#X^ . . . . V [.oXoX.X5.H q i oXB.[ q D.D.{ 5.e . . .   8.#X#X",
"#X#XR.e . . . . Z W.#XoXoXoX.XL.3 . . . . z 8.e . . . . S oX#X#X",
"#X#X#Xa.@ . . . . w q.oXoXoXoXU.. . . f -.@., . . . . e U.#X#X#X",
"#X#X#X#X5.  . . . . . l >.B.[.(.! @.1.| e . . . . . 6 B.#X#X#X#X",
"#X#X#X#X#Xq., . . . . . . . ; q q ; . . . . . . . i B.#X#X#X#X#X",
"#X#X#X#X#X#Xm.z . . . . . . . .         . . .   L R.#X#X#X#X#X#X",
"#X#X#X#X#X#X#X.X:.w . . . . . .         .   x u.oX#X#X#X#X#X#X#X",
"#X#X#X#X#X#X#X#X#X|.e.Y 9 . . . . . O s ' l.oX#X#X#X#X#X#X#X#X#X",
"#X#X#X#X#X#X#X#X#X#X#X#X#XL.M.d.d.N.).#X#X#X#X#X#X#X#X#X#X#X#X#X"
};
