/* XPM */
static char *_920fd0c289643a3e1d98f4d9bb15632uoTMQVP10CQtz9qB[] = {
/* columns rows colors chars-per-pixel */
"64 64 32 1 ",
"  c #FFCC29",
". c #FFCE34",
"X c #FECF39",
"o c #FED03C",
"O c #FED243",
"+ c #FED44B",
"@ c #FED654",
"# c #FED759",
"$ c #FED85D",
"% c #FEDA64",
"& c #FEDC6C",
"* c #FEDD73",
"= c #FEDE79",
"- c #FEE07E",
"; c #FEE184",
": c #FEE28A",
"> c #FEE593",
", c #FEE79C",
"< c #FEE9A4",
"1 c #FEEBAC",
"2 c #FEECB4",
"3 c #FEEEBC",
"4 c #FEEFC1",
"5 c #FEF0C4",
"6 c #FEF2CA",
"7 c #FEF4D3",
"8 c #FEF6DC",
"9 c #FEF7E1",
"0 c #FEF8E5",
"q c #FEF9EB",
"w c #FEFBF3",
"e c #FFFFFF",
/* pixels */
"eeeeeeeeeeeeeeeeeeeeeeeeeeeeeeeeeeeeeeeeeeeeeeeeeeeeeeeeeeeeeeee",
"eeeeeeeeeeeeeeeeeeeeeeeeeeeeeeeeeeeeeeeeeeeeeeeeeeeeeeeeeeeeeeee",
"eeeeeeeeeeeeeeeeeeeeeeeeeq61:-*&*=:<50weeeeeeeeeeeeeeeeeeeeeeeee",
"eeeeeeeeeeeeeeeeeeeeew4;@             +=2qeeeeeeeeeeeeeeeeeeeeee",
"eeeeeeeeeeeeeeeeeee7:X                   X*6weeeeeeeeeeeeeeeeeee",
"eeeeeeeeeeeeeeeee6%.                        $4weeeeeeeeeeeeeeeee",
"eeeeeeeeeeeeeee0*.                            $7eeeeeeeeeeeeeeee",
"eeeeeeeeeeeeee1o                               X>weeeeeeeeeeeeee",
"eeeeeeeeeeeew=                                   $9eeeeeeeeeeeee",
"eeeeeeeeeee9@                                     o6eeeeeeeeeeee",
"eeeeeeeeee8O              X%;,222<:%O              X3eeeeeeeeeee",
"eeeeeeeee8O            X;6weeww7;,50w8>+            .5eeeeeeeeee",
"eeeeeeee0O           O<qweewwee3   X+:7w3@           X6eeeeeeeee",
"eeeeeeew$          X>weeeeeewwe3       #3w2X          O0eeeeeeee",
"eeeeeee:          +7eeeeeeeewee4         @6q%          %weeeeeee",
"eeeeee5          %qeeeeeeeewew72=%+        :w;          ,eeeeeee",
"eeeeew+         &weeeweeew5;+  *eeew4;X     $q>         .8eeeeee",
"eeeee>         %weeewwew<+     *eeeeeew<X    @q:         &eeeeee",
"eeeeqX        +qeeeeee7@       &eeeeeeee9$    @q%         6eeeee",
"eeee>         6eeeeew<.        &weeeeeeeew+    *qo        &eeeee",
"eeewo        :eeweww<       .X+;wweeeeeee1      22        .8eeee",
"eee2        Oqeweee2      X:7ww2O@;6weee6.      oq$        :eeee",
"eee&        ,weeee8X    .&0wwee2    #6eq+        >5        Oweee",
"eew.       Xqeeeew%     :wweeee2     .>&         oq@        8eee",
"ee5        *eewee4     *weeewee2                  2,        ,eee",
"ee>        2eeeew%    O9eeeeeee2                  &8        %eee",
"ee&       .0eeee8     ,eeeeeeee2                  Xw+       +wee",
"ee+       @weeee,    X0eweewwee2                   6=        wee",
"ew.       &weeee&    %eeeeewwwe2                   1,        8ee",
"ew        ;eeeeeO    >eeeeeeeee3                   >1        6ee",
"eq        >eeeee     <eeeeeewee3    #=&&&&$        :3        3ee",
"e0        ,eeeew     2eeeeeeeew4    1eeeeee3       ;5        3ee",
"e0        >eeeew     ,eeweeweee3    1eweeeww+      ;4        4ee",
"ew        ;eeewe.    &eeeeeeeee3    2eeeeeee+      ,1        6ee",
"ewX       &wweee+    Oqeeeeewwe3    2eewweew+      2>        8ee",
"ee+       +weeew;     1eeeeweee3    @&,eeeee+     .7&       .qee",
"ee&       .9eeww2     O0eeeeeee4      .9eewe+     Xw+       Owee",
"ee>        2eeewwX     %qeeewee4      .9wwee@     *8.       &eee",
"ee6        &wewee>      $9eeeee4      Xqeeee@     3>        ,eee",
"eewX       X0eeeeqO      X<qeee4     @7eeeee@    Oq@        8eee",
"eee*        >weeee3        O;404   @<weeeeee#    <3        +eeee",
"eee3        Xqwewee,          .;438weeeeeeee#   Ow@        :eeee",
"eeewO        ;weeeew>          ;eeeeeeeweeee#   41        .8eeee",
"eeee>        .6eeeeee2X        ;eeeeeewwweew$  :0X        &eeeee",
"eeeeqX        Oqweewee9*.      ;eeeeew>2eeee$ %w$         7eeeee",
"eeeee,         $weeeeeee9>O    ;eeww2+ <eeee%#q=         *eeeeee",
"eeeeew@         &weeeeeeeww81;&>4<=X   +&&&*;w:         X9eeeeee",
"eeeeee6          $qwewwweweeeee6           >q=          <eeeeeee",
"eeeeeee:          O6eeeeeeeeeee4         #78#          %eeeeeeee",
"eeeeeeee%           :qeeeeeeeee2       @3w<.          +qeeeeeeee",
"eeeeeeeeq+           o,qeeeeeee2    +:7w1+           X7eeeeeeeee",
"eeeeeeeee0+            .=30eeee5*>38q6;O            X6eeeeeeeeee",
"eeeeeeeeee0+              .@*><<<,=$X              X6eeeeeeeeeee",
"eeeeeeeeeee0$                                     +7eeeeeeeeeeee",
"eeeeeeeeeeeew;                                   &qeeeeeeeeeeeee",
"eeeeeeeeeeeeee3O                               .,weeeeeeeeeeeeee",
"eeeeeeeeeeeeeeeq;                             &8eeeeeeeeeeeeeeee",
"eeeeeeeeeeeeeeeee8=.                        %6eeeeeeeeeeeeeeeeee",
"eeeeeeeeeeeeeeeeeee9>+                   o;7eeeeeeeeeeeeeeeeeeee",
"eeeeeeeeeeeeeeeeeeeeew6>#.            @;5qeeeeeeeeeeeeeeeeeeeeee",
"eeeeeeeeeeeeeeeeeeeeeeeeew72,:;=-:>27qweeeeeeeeeeeeeeeeeeeeeeeee",
"eeeeeeeeeeeeeeeeeeeeeeeeeeeeeeeeeeeeeeeeeeeeeeeeeeeeeeeeeeeeeeee",
"eeeeeeeeeeeeeeeeeeeeeeeeeeeeeeeeeeeeeeeeeeeeeeeeeeeeeeeeeeeeeeee",
"eeeeeeeeeeeeeeeeeeeeeeeeeeeeeeeeeeeeeeeeeeeeeeeeeeeeeeeeeeeeeeee"
};
